<svg xmlns="http://www.w3.org/2000/svg" width="18" height="18">
    <path
        d="M 11.319 4.39 C 11.366 4.217 11.479 4.07 11.634 3.98 C 11.789 3.891 11.973 3.867 12.146 3.913 L 16.448 5.066 C 16.622 5.112 16.769 5.225 16.859 5.381 C 16.948 5.536 16.973 5.72 16.926 5.893 L 15.773 10.195 C 15.672 10.549 15.306 10.757 14.95 10.662 C 14.594 10.567 14.38 10.204 14.469 9.847 L 15.198 7.127 C 13.226 8.339 11.515 9.931 10.164 11.81 C 10.048 11.971 9.868 12.073 9.671 12.089 C 9.473 12.105 9.279 12.033 9.139 11.894 L 6.3 9.054 L 2.052 13.302 C 1.787 13.558 1.366 13.554 1.106 13.293 C 0.846 13.033 0.842 12.612 1.098 12.347 L 5.823 7.622 C 6.087 7.359 6.513 7.359 6.777 7.622 L 9.544 10.388 C 10.929 8.623 12.619 7.12 14.534 5.95 L 11.796 5.216 C 11.623 5.17 11.476 5.057 11.386 4.902 C 11.297 4.747 11.273 4.562 11.319 4.389 Z"
        fill="#ff3838"></path>
</svg>